<?xml version="1.0" encoding="UTF-8"?>
<svg id="Layer_1" xmlns="http://www.w3.org/2000/svg" viewBox="0 0 97.62 84.29">
  <defs>
    <style>
      .cls-1 {
        fill: #fff;
      }
    </style>
  </defs>
  <g>
    <path class="cls-1" d="M32.94,26.51c.6,1.75.89,2.63,1.49,4.38h-8.94c.6-1.75.89-2.63,1.49-4.38h5.96Z"/>
    <g>
      <path class="cls-1" d="M31,31.51l6.33,24.85,3.4,3.14,3.16-3.31,2.66,6.4c.11.26.41.38.67.28.2-.08.31-.27.31-.47,0-.07-.01-.13-.04-.2l-12.77-30.69h-3.73Z"/>
      <path class="cls-1" d="M25.19,31.51l-12.77,30.69c-.11.26.02.56.27.67.26.11.56-.02.67-.28l2.66-6.4,3.16,3.31,3.38-3.12,6.35-24.87h-3.73Z"/>
      <polygon class="cls-1" points="23.26 56.2 26.21 59.85 29.66 56.25 29.64 56.25 29.64 31.51 29.56 31.51 23.26 56.2"/>
      <polygon class="cls-1" points="30.27 56.25 30.26 56.25 33.71 59.85 36.64 56.22 30.35 31.51 30.27 31.51 30.27 56.25"/>
      <path class="cls-1" d="M25.49,30.88h8.94c-.6-1.75-.89-2.63-1.49-4.38h-5.96c-.6,1.75-.89,2.63-1.49,4.38Z"/>
      <g>
        <path class="cls-1" d="M28.04,26.65h3.84c-.01-.05-.02-.09-.03-.14h-3.78s-.02.09-.03.14Z"/>
        <path class="cls-1" d="M28.21,25.88h3.5c-.36-1.63-.59-2.66-1-4.5h-1.49c-.41,1.83-.64,2.87-1,4.5Z"/>
      </g>
    </g>
  </g>
  <g>
    <path class="cls-1" d="M67.7,26.51c.6,1.75.89,2.63,1.49,4.38h-8.94c.6-1.75.89-2.63,1.49-4.38h5.96Z"/>
    <g>
      <path class="cls-1" d="M65.76,31.51l6.33,24.85,3.4,3.14,3.16-3.31,2.66,6.4c.11.26.41.38.67.28.2-.08.31-.27.31-.47,0-.07-.01-.13-.04-.2l-12.77-30.69h-3.73Z"/>
      <path class="cls-1" d="M59.95,31.51l-12.77,30.69c-.11.26.02.56.27.67.26.11.56-.02.67-.28l2.66-6.4,3.16,3.31,3.38-3.12,6.35-24.87h-3.73Z"/>
      <polygon class="cls-1" points="58.02 56.2 60.97 59.85 64.42 56.25 64.41 56.25 64.41 31.51 64.33 31.51 58.02 56.2"/>
      <polygon class="cls-1" points="65.03 56.25 65.02 56.25 68.47 59.85 71.4 56.22 65.11 31.51 65.03 31.51 65.03 56.25"/>
      <path class="cls-1" d="M60.25,30.88h8.94c-.6-1.75-.89-2.63-1.49-4.38h-5.96c-.6,1.75-.89,2.63-1.49,4.38Z"/>
      <g>
        <path class="cls-1" d="M62.8,26.65h3.84c-.01-.05-.02-.09-.03-.14h-3.78s-.02.09-.03.14Z"/>
        <path class="cls-1" d="M62.97,25.88h3.5c-.36-1.63-.59-2.66-1-4.5h-1.49c-.41,1.83-.64,2.87-1,4.5Z"/>
      </g>
    </g>
  </g>
</svg>