<?xml version="1.0" encoding="UTF-8"?>
<svg id="Layer_1" xmlns="http://www.w3.org/2000/svg" viewBox="0 0 60 60">
  <defs>
    <style>
      .cls-1 {
        fill: #fff;
      }
    </style>
  </defs>
  <path class="cls-1" d="M26.64,48.06H3.47v-21.1l.07-.1,11.47-15.72,11.63,15.82v21.1ZM4.21,47.32h21.7v-20.13l-10.89-14.81-10.81,14.81v20.13Z"/>
  <path class="cls-1" d="M3.84,27.74c-.14,0-.27-.04-.39-.13-.29-.21-.36-.63-.14-.92l11.18-15.32c.12-.17.32-.27.53-.27h0c.21,0,.41.1.53.27l11.26,15.32c.22.3.15.71-.14.93-.29.22-.71.15-.93-.14l-10.72-14.59-10.64,14.59c-.13.18-.33.27-.54.27Z"/>
  <path class="cls-1" d="M43.81,36.98h-4.49c.34-8.83.68-17.66,1.02-26.49h2.46c.34,8.83.68,17.66,1.02,26.49Z"/>
  <g>
    <path class="cls-1" d="M39.71,26.71c0,.25-.02.49-.03.74h3.76c-.01-.25-.02-.49-.03-.74h-3.7Z"/>
    <path class="cls-1" d="M44.15,26.71l.03.74h11.62v19.88h-29.15v-19.88h12.31c0-.25.02-.49.03-.74h-13.07v21.35h30.63v-21.35h-12.38Z"/>
  </g>
  <path class="cls-1" d="M48.51,41.65h0c0-4.8-3.11-8.69-6.95-8.69s-6.95,3.89-6.95,8.69c0,.03,0,.05,0,.08v5.97h13.91v-6.04h0Z"/>
  <rect class="cls-1" x="39.32" y="8.45" width="4.49" height="2.04"/>
  <g>
    <rect class="cls-1" x="7.15" y="35" width="6.51" height="12.69"/>
    <rect class="cls-1" x="16.48" y="35" width="6.46" height="8.06"/>
    <rect class="cls-1" x="7.15" y="27.55" width="15.79" height="4.47"/>
  </g>
  <g>
    <path class="cls-1" d="M40.31,11.1c-.21,5.55-.43,11.09-.64,16.64h3.78c-.21-5.55-.43-11.09-.64-16.64h-2.5Z"/>
    <path class="cls-1" d="M56.69,26.68l-11.26-15.32c-.13-.17-.32-.27-.53-.27h-1.35l.59,15.42.05,1.22h11.97c.25,0,.48-.14.59-.36.11-.22.09-.49-.06-.69Z"/>
    <path class="cls-1" d="M39.26,19.28l.31-8.18H15.01c-.25,0-.48.14-.59.36-.11.22-.09.49.06.69l11.26,15.32c.13.17.32.27.53.27h12.66c.11-2.82.22-5.64.32-8.46Z"/>
  </g>
</svg>