<?xml version="1.0" encoding="UTF-8"?>
<svg id="Layer_1" xmlns="http://www.w3.org/2000/svg" viewBox="0 0 60 60">
  <defs>
    <style>
      .cls-1 {
        fill: #fff;
      }
    </style>
  </defs>
  <path class="cls-1" d="M48.69,43.99c-1.02-2.15-2.18-3.08-1.9-4.4-2.43,1.5.74,3.93-1.97,7.74,2.22-6.23-2.55-8.4-.54-11.97-6.36,1.76-2.59,7.06-5.58,9.6,1.23-2.15.86-5.38-1.18-6.97.47,2.75-1.11,3.55-2.71,5.49-1.11,1.33-1.48,2.43-1.53,4.21-.05,2.23,1.04,5.39,3.87,6.41-1.48-2.31-1.53-4.8.46-6.74-.55,1.77,1.03,3.52,2.16,2.83.66-.41.07-1.11.45-2.62.44-1.7,1.37-2.36,2.6-2.87-.19,1.11-.46,2.91-.32,4.08.1.67.4,1.65.89,2.22,1.03,1.25,2.7-1.21,2.72-2.21.76.88,1.35,2.35.92,3.84-.06.2-.52,1.28-.56,1.46,1.38-1.12,2.5-3.17,2.74-4.66.29-1.8.36-3.55-.53-5.45Z"/>
  <path class="cls-1" d="M36.79,32.1l-.93-.9c-1.58-1.53-1.96-7.77-4.65-10.37-2.48-2.39-5.35-2.47-7.28-2.13-.05-.03-.1-.05-.15-.08,0,0,0,0,0,0,0,0,0,0,0,0-.24-1.7-.76-3.67-1.85-5.07-.79-1.02-3.89-3.92-7.65-7.32l-1.42,1.42,2.71,2.53s4.59,4.5,4.56,7.82c-3.32.03-7.82-4.55-7.82-4.55l-2.53-2.72-1.43,1.42c3.4,3.76,6.31,6.86,7.33,7.65,1.41,1.09,3.37,1.61,5.06,1.85,0,0,0,0,0,0,.03.05.05.11.08.16-.33,1.93-.25,4.8,2.13,7.27,2.6,2.68,8.85,3.06,10.37,4.64l.9.93c.25.26.67.27.93.02l.32-.31-1.99-2.09c-1.64-1.7-3.9-2.03-7.21-4.18-2.68-1.74-2.53-4.56-2.38-5.57.15-.09.29-.19.42-.32.13-.13.23-.27.32-.42,1-.15,3.83-.3,5.58,2.37,2.16,3.3,2.49,5.56,4.19,7.2l2.09,1.99.3-.32c.25-.26.25-.68-.02-.93ZM23.58,21.46c-.47.47-1.24.47-1.71,0-.47-.47-.47-1.24,0-1.71.47-.47,1.24-.47,1.71,0,.47.47.47,1.24,0,1.71Z"/>
  <rect class="cls-1" x="35.64" y="31.48" width="1.44" height="5.48" transform="translate(-13.55 35.72) rotate(-44.98)"/>
</svg>